<svg xmlns="http://www.w3.org/2000/svg" viewBox="0 0 512 512">
  <defs>
    <linearGradient id="g" x1="0" y1="0" x2="1" y2="1">
      <stop offset="0%" stop-color="#8b5cf6"/>
      <stop offset="100%" stop-color="#06b6d4"/>
    </linearGradient>
  </defs>
  <rect width="512" height="512" rx="96" fill="#0f0f17"/>
  <rect x="40" y="40" width="432" height="432" rx="80" fill="url(#g)" opacity="0.15"/>
  <g transform="translate(96 144)" fill="none" stroke="url(#g)" stroke-width="22" stroke-linecap="round" stroke-linejoin="round">
    <path d="M80 80 H120 M100 60 V100" />
    <circle cx="232" cy="80" r="14" fill="url(#g)" stroke="none"/>
    <circle cx="272" cy="120" r="14" fill="url(#g)" stroke="none"/>
    <path d="M48 64 Q24 64 24 112 V160 Q24 200 56 200 Q80 200 96 168 L120 128 H200 L224 168 Q240 200 264 200 Q296 200 296 160 V112 Q296 64 272 64 Z"/>
  </g>
  <text x="256" y="430" font-family="system-ui, -apple-system, Segoe UI, sans-serif" font-size="56" font-weight="800" text-anchor="middle" fill="url(#g)">GameTrack</text>
</svg>
